<mxfile host="drawio-plugin" modified="2023-01-24T21:53:56.222Z" agent="5.0 (Windows NT 6.2; Win64; x64) AppleWebKit/537.36 (KHTML, like Gecko) Chrome/97.0.4692.45 Safari/537.36" etag="vnsYhgeOr76i-N24j-1_" version="20.5.3" type="embed"><diagram id="23iRSUPoRavnBvh4doch" name="Page-1"><mxGraphModel dx="1182" dy="855" grid="1" gridSize="10" guides="1" tooltips="1" connect="1" arrows="1" fold="1" page="1" pageScale="1" pageWidth="827" pageHeight="1169" math="0" shadow="0"><root><mxCell id="0"/><mxCell id="1" parent="0"/><mxCell id="22" style="rounded=0;orthogonalLoop=1;jettySize=auto;html=1;entryX=0;entryY=0.5;entryDx=0;entryDy=0;shadow=1;sketch=0;labelBackgroundColor=none;strokeWidth=1;" parent="1" source="2" target="4" edge="1"><mxGeometry relative="1" as="geometry"/></mxCell><mxCell id="25" style="edgeStyle=none;rounded=0;orthogonalLoop=1;jettySize=auto;html=1;entryX=0;entryY=0.5;entryDx=0;entryDy=0;shadow=1;sketch=0;labelBackgroundColor=none;strokeWidth=1;" parent="1" source="2" target="9" edge="1"><mxGeometry relative="1" as="geometry"/></mxCell><mxCell id="28" style="edgeStyle=none;rounded=0;orthogonalLoop=1;jettySize=auto;html=1;entryX=0.037;entryY=0.36;entryDx=0;entryDy=0;entryPerimeter=0;shadow=1;sketch=0;labelBackgroundColor=none;strokeWidth=1;" parent="1" source="2" target="12" edge="1"><mxGeometry relative="1" as="geometry"/></mxCell><mxCell id="29" style="edgeStyle=none;rounded=0;orthogonalLoop=1;jettySize=auto;html=1;entryX=0;entryY=0;entryDx=0;entryDy=0;jumpStyle=none;shadow=1;sketch=0;labelBackgroundColor=none;strokeWidth=1;" parent="1" source="2" target="15" edge="1"><mxGeometry relative="1" as="geometry"/></mxCell><mxCell id="2" value="" style="ellipse;whiteSpace=wrap;html=1;shadow=1;sketch=0;fillColor=#f8cecc;strokeColor=#b85450;labelBackgroundColor=none;strokeWidth=1;" parent="1" vertex="1"><mxGeometry x="100" y="270" width="120" height="80" as="geometry"/></mxCell><mxCell id="3" value="&lt;b&gt;Врач&lt;/b&gt;" style="text;html=1;align=center;verticalAlign=middle;whiteSpace=wrap;rounded=0;shadow=1;sketch=0;fillColor=none;strokeColor=none;labelBackgroundColor=none;strokeWidth=0;" parent="1" vertex="1"><mxGeometry x="130" y="295" width="60" height="30" as="geometry"/></mxCell><mxCell id="39" style="edgeStyle=none;rounded=0;orthogonalLoop=1;jettySize=auto;html=1;entryX=0;entryY=0.5;entryDx=0;entryDy=0;shadow=1;sketch=0;fillColor=#d5e8d4;strokeColor=#82b366;labelBackgroundColor=none;strokeWidth=1;" parent="1" source="9" target="31" edge="1"><mxGeometry relative="1" as="geometry"/></mxCell><mxCell id="40" style="edgeStyle=none;rounded=0;orthogonalLoop=1;jettySize=auto;html=1;entryX=0;entryY=0.5;entryDx=0;entryDy=0;shadow=1;sketch=0;fillColor=#d5e8d4;strokeColor=#82b366;labelBackgroundColor=none;strokeWidth=1;" parent="1" source="9" target="34" edge="1"><mxGeometry relative="1" as="geometry"/></mxCell><mxCell id="54" style="edgeStyle=none;rounded=0;jumpStyle=none;orthogonalLoop=1;jettySize=auto;html=1;entryX=0;entryY=0.5;entryDx=0;entryDy=0;shadow=1;sketch=0;fillColor=#d5e8d4;strokeColor=#82b366;labelBackgroundColor=none;strokeWidth=1;" parent="1" source="12" target="43" edge="1"><mxGeometry relative="1" as="geometry"/></mxCell><mxCell id="57" style="edgeStyle=none;rounded=0;jumpStyle=none;orthogonalLoop=1;jettySize=auto;html=1;entryX=0.053;entryY=0.27;entryDx=0;entryDy=0;entryPerimeter=0;shadow=1;sketch=0;fillColor=#d5e8d4;strokeColor=#82b366;labelBackgroundColor=none;strokeWidth=1;" parent="1" source="12" target="52" edge="1"><mxGeometry relative="1" as="geometry"/></mxCell><mxCell id="103" style="rounded=0;orthogonalLoop=1;jettySize=auto;html=1;entryX=0.027;entryY=0.737;entryDx=0;entryDy=0;entryPerimeter=0;shadow=0;sketch=0;fillColor=#dae8fc;strokeColor=#6c8ebf;" edge="1" parent="1" source="72" target="84"><mxGeometry relative="1" as="geometry"><mxPoint x="430" y="610" as="targetPoint"/></mxGeometry></mxCell><mxCell id="104" style="edgeStyle=none;rounded=0;orthogonalLoop=1;jettySize=auto;html=1;entryX=0;entryY=0.5;entryDx=0;entryDy=0;shadow=0;sketch=0;fillColor=#dae8fc;strokeColor=#6c8ebf;" edge="1" parent="1" source="72" target="78"><mxGeometry relative="1" as="geometry"/></mxCell><mxCell id="105" style="edgeStyle=none;rounded=0;orthogonalLoop=1;jettySize=auto;html=1;entryX=0.073;entryY=0.247;entryDx=0;entryDy=0;entryPerimeter=0;shadow=0;sketch=0;fillColor=#dae8fc;strokeColor=#6c8ebf;" edge="1" parent="1" source="72" target="81"><mxGeometry relative="1" as="geometry"/></mxCell><mxCell id="106" style="edgeStyle=none;rounded=0;orthogonalLoop=1;jettySize=auto;html=1;entryX=1;entryY=0;entryDx=0;entryDy=0;shadow=0;sketch=0;fillColor=#dae8fc;strokeColor=#6c8ebf;" edge="1" parent="1" source="84" target="78"><mxGeometry relative="1" as="geometry"/></mxCell><mxCell id="107" style="edgeStyle=none;rounded=0;orthogonalLoop=1;jettySize=auto;html=1;entryX=0.5;entryY=0;entryDx=0;entryDy=0;shadow=0;sketch=0;fillColor=#dae8fc;strokeColor=#6c8ebf;" edge="1" parent="1" source="84" target="81"><mxGeometry relative="1" as="geometry"/></mxCell><mxCell id="108" style="edgeStyle=none;rounded=0;orthogonalLoop=1;jettySize=auto;html=1;entryX=0;entryY=1;entryDx=0;entryDy=0;shadow=0;sketch=0;" edge="1" parent="1" source="59" target="72"><mxGeometry relative="1" as="geometry"/></mxCell><mxCell id="109" style="edgeStyle=none;rounded=0;orthogonalLoop=1;jettySize=auto;html=1;entryX=0.023;entryY=0.688;entryDx=0;entryDy=0;entryPerimeter=0;shadow=0;sketch=0;" edge="1" parent="1" source="59" target="64"><mxGeometry relative="1" as="geometry"/></mxCell><mxCell id="110" style="edgeStyle=none;rounded=0;orthogonalLoop=1;jettySize=auto;html=1;entryX=0.03;entryY=0.347;entryDx=0;entryDy=0;entryPerimeter=0;shadow=0;sketch=0;" edge="1" parent="1" source="59" target="69"><mxGeometry relative="1" as="geometry"/></mxCell><mxCell id="111" style="edgeStyle=none;rounded=0;orthogonalLoop=1;jettySize=auto;html=1;entryX=0.07;entryY=0.228;entryDx=0;entryDy=0;entryPerimeter=0;shadow=0;sketch=0;" edge="1" parent="1" source="59" target="75"><mxGeometry relative="1" as="geometry"/></mxCell><mxCell id="114" style="edgeStyle=none;rounded=0;orthogonalLoop=1;jettySize=auto;html=1;entryX=0;entryY=0;entryDx=0;entryDy=0;shadow=0;sketch=0;" edge="1" parent="1" source="59" target="96"><mxGeometry relative="1" as="geometry"/></mxCell><mxCell id="115" style="edgeStyle=none;rounded=0;orthogonalLoop=1;jettySize=auto;html=1;entryX=0.047;entryY=0.768;entryDx=0;entryDy=0;entryPerimeter=0;shadow=0;sketch=0;fillColor=#dae8fc;strokeColor=#6c8ebf;" edge="1" parent="1" source="75" target="87"><mxGeometry relative="1" as="geometry"/></mxCell><mxCell id="116" style="edgeStyle=none;rounded=0;orthogonalLoop=1;jettySize=auto;html=1;entryX=0;entryY=0.5;entryDx=0;entryDy=0;shadow=0;sketch=0;fillColor=#dae8fc;strokeColor=#6c8ebf;" edge="1" parent="1" source="75" target="90"><mxGeometry relative="1" as="geometry"/></mxCell><mxCell id="117" style="edgeStyle=none;rounded=0;orthogonalLoop=1;jettySize=auto;html=1;entryX=0.1;entryY=0.215;entryDx=0;entryDy=0;entryPerimeter=0;shadow=0;sketch=0;fillColor=#dae8fc;strokeColor=#6c8ebf;" edge="1" parent="1" source="75" target="93"><mxGeometry relative="1" as="geometry"/></mxCell><mxCell id="119" value="&lt;font style=&quot;font-size: 20px;&quot;&gt;&lt;b&gt;Поликлинника&lt;br&gt;Use-Case&lt;/b&gt;&lt;/font&gt;" style="text;html=1;strokeColor=none;fillColor=none;align=center;verticalAlign=middle;whiteSpace=wrap;rounded=0;shadow=1;sketch=0;" vertex="1" parent="1"><mxGeometry x="115" y="50" width="90" height="40" as="geometry"/></mxCell><mxCell id="4" value="" style="ellipse;whiteSpace=wrap;html=1;fontStyle=1;shadow=1;sketch=0;container=0;fillColor=#d5e8d4;strokeColor=#82b366;labelBackgroundColor=none;strokeWidth=1;" parent="1" vertex="1"><mxGeometry x="260" y="120" width="120" height="80" as="geometry"/></mxCell><mxCell id="6" value="&lt;span&gt;Аттестация&lt;/span&gt;" style="text;html=1;align=center;verticalAlign=middle;whiteSpace=wrap;rounded=0;fontStyle=1;shadow=1;sketch=0;container=0;fillColor=none;strokeColor=none;labelBackgroundColor=none;strokeWidth=0;" parent="1" vertex="1"><mxGeometry x="290" y="145" width="60" height="30" as="geometry"/></mxCell><mxCell id="9" value="" style="ellipse;whiteSpace=wrap;html=1;fontStyle=1;shadow=1;sketch=0;container=0;fillColor=#d5e8d4;strokeColor=#82b366;labelBackgroundColor=none;strokeWidth=1;" parent="1" vertex="1"><mxGeometry x="260" y="220" width="120" height="80" as="geometry"/></mxCell><mxCell id="10" value="Приём" style="text;html=1;align=center;verticalAlign=middle;whiteSpace=wrap;rounded=0;fontStyle=1;shadow=1;sketch=0;container=0;fillColor=none;strokeColor=none;labelBackgroundColor=none;strokeWidth=0;" parent="1" vertex="1"><mxGeometry x="290" y="245" width="60" height="30" as="geometry"/></mxCell><mxCell id="12" value="" style="ellipse;whiteSpace=wrap;html=1;fontStyle=1;shadow=1;sketch=0;container=0;fillColor=#d5e8d4;strokeColor=#82b366;labelBackgroundColor=none;strokeWidth=1;" parent="1" vertex="1"><mxGeometry x="260" y="320" width="120" height="80" as="geometry"/></mxCell><mxCell id="13" value="Вызов" style="text;html=1;align=center;verticalAlign=middle;whiteSpace=wrap;rounded=0;fontStyle=1;shadow=1;sketch=0;container=0;fillColor=none;strokeColor=none;labelBackgroundColor=none;strokeWidth=0;" parent="1" vertex="1"><mxGeometry x="290" y="345" width="60" height="30" as="geometry"/></mxCell><mxCell id="15" value="" style="ellipse;whiteSpace=wrap;html=1;fontStyle=1;shadow=1;sketch=0;container=0;fillColor=#d5e8d4;strokeColor=#82b366;labelBackgroundColor=none;strokeWidth=1;" parent="1" vertex="1"><mxGeometry x="260" y="420" width="120" height="80" as="geometry"/></mxCell><mxCell id="16" value="Документация" style="text;html=1;align=center;verticalAlign=middle;whiteSpace=wrap;rounded=0;fontStyle=1;shadow=1;sketch=0;container=0;fillColor=none;strokeColor=none;labelBackgroundColor=none;strokeWidth=0;" parent="1" vertex="1"><mxGeometry x="290" y="445" width="60" height="30" as="geometry"/></mxCell><mxCell id="41" style="edgeStyle=none;rounded=0;orthogonalLoop=1;jettySize=auto;html=1;exitX=0;exitY=0;exitDx=0;exitDy=0;shadow=1;sketch=0;fillColor=#d5e8d4;strokeColor=#82b366;labelBackgroundColor=none;strokeWidth=1;" parent="1" source="15" target="15" edge="1"><mxGeometry relative="1" as="geometry"/></mxCell><mxCell id="31" value="" style="ellipse;whiteSpace=wrap;html=1;shadow=1;sketch=0;container=0;fillColor=#d5e8d4;strokeColor=#82b366;labelBackgroundColor=none;strokeWidth=1;" parent="1" vertex="1"><mxGeometry x="430" y="120" width="120" height="80" as="geometry"/></mxCell><mxCell id="32" value="Кабинет" style="text;html=1;align=center;verticalAlign=middle;whiteSpace=wrap;rounded=0;fontStyle=1;shadow=1;sketch=0;container=0;fillColor=none;strokeColor=none;labelBackgroundColor=none;strokeWidth=0;" parent="1" vertex="1"><mxGeometry x="460" y="145" width="60" height="30" as="geometry"/></mxCell><mxCell id="34" value="" style="ellipse;whiteSpace=wrap;html=1;shadow=1;sketch=0;container=0;fillColor=#d5e8d4;strokeColor=#82b366;labelBackgroundColor=none;strokeWidth=1;" parent="1" vertex="1"><mxGeometry x="430" y="220" width="120" height="80" as="geometry"/></mxCell><mxCell id="35" value="Осмотр" style="text;html=1;align=center;verticalAlign=middle;whiteSpace=wrap;rounded=0;fontStyle=1;shadow=1;sketch=0;container=0;fillColor=none;strokeColor=none;labelBackgroundColor=none;strokeWidth=0;" parent="1" vertex="1"><mxGeometry x="460" y="245" width="60" height="30" as="geometry"/></mxCell><mxCell id="43" value="" style="ellipse;whiteSpace=wrap;html=1;shadow=1;sketch=0;container=0;fillColor=#d5e8d4;strokeColor=#82b366;labelBackgroundColor=none;strokeWidth=1;" parent="1" vertex="1"><mxGeometry x="430" y="320" width="120" height="80" as="geometry"/></mxCell><mxCell id="44" value="Квартира" style="text;html=1;align=center;verticalAlign=middle;whiteSpace=wrap;rounded=0;fontStyle=1;shadow=1;sketch=0;container=0;fillColor=none;strokeColor=none;labelBackgroundColor=none;strokeWidth=0;" parent="1" vertex="1"><mxGeometry x="460" y="345" width="60" height="30" as="geometry"/></mxCell><mxCell id="52" value="" style="ellipse;whiteSpace=wrap;html=1;shadow=1;sketch=0;container=0;fillColor=#d5e8d4;strokeColor=#82b366;labelBackgroundColor=none;strokeWidth=1;" parent="1" vertex="1"><mxGeometry x="430" y="420" width="120" height="80" as="geometry"/></mxCell><mxCell id="53" value="Лечебное учреждение" style="text;html=1;align=center;verticalAlign=middle;whiteSpace=wrap;rounded=0;fontStyle=1;shadow=1;sketch=0;container=0;fillColor=none;strokeColor=none;labelBackgroundColor=none;strokeWidth=0;" parent="1" vertex="1"><mxGeometry x="460" y="445" width="60" height="30" as="geometry"/></mxCell><mxCell id="59" value="" style="ellipse;whiteSpace=wrap;html=1;fontStyle=1;shadow=0;sketch=0;container=0;fillColor=#f8cecc;strokeColor=#b85450;" parent="1" vertex="1"><mxGeometry x="100" y="795" width="120" height="80" as="geometry"/></mxCell><mxCell id="60" value="Пациент" style="text;html=1;align=center;verticalAlign=middle;whiteSpace=wrap;rounded=0;fontStyle=1;shadow=0;sketch=0;container=0;fillColor=none;strokeColor=none;strokeWidth=0;" parent="1" vertex="1"><mxGeometry x="130" y="820" width="60" height="30" as="geometry"/></mxCell><mxCell id="64" value="" style="ellipse;whiteSpace=wrap;html=1;fontStyle=1;shadow=0;sketch=0;container=0;fillColor=#dae8fc;strokeColor=#6c8ebf;" parent="1" vertex="1"><mxGeometry x="260" y="745" width="120" height="80" as="geometry"/></mxCell><mxCell id="65" value="Справки" style="text;html=1;align=center;verticalAlign=middle;whiteSpace=wrap;rounded=0;fontStyle=1;shadow=0;sketch=0;container=0;fillColor=none;strokeColor=none;strokeWidth=0;" parent="1" vertex="1"><mxGeometry x="290" y="770" width="60" height="30" as="geometry"/></mxCell><mxCell id="69" value="" style="ellipse;whiteSpace=wrap;html=1;fontStyle=1;shadow=0;sketch=0;container=0;fillColor=#dae8fc;strokeColor=#6c8ebf;" parent="1" vertex="1"><mxGeometry x="260" y="845" width="120" height="80" as="geometry"/></mxCell><mxCell id="70" value="Анализы" style="text;html=1;align=center;verticalAlign=middle;whiteSpace=wrap;rounded=0;fontStyle=1;shadow=0;sketch=0;container=0;fillColor=none;strokeColor=none;strokeWidth=0;" parent="1" vertex="1"><mxGeometry x="290" y="870" width="60" height="30" as="geometry"/></mxCell><mxCell id="72" value="" style="ellipse;whiteSpace=wrap;html=1;fontStyle=1;shadow=0;sketch=0;container=0;fillColor=#dae8fc;strokeColor=#6c8ebf;" parent="1" vertex="1"><mxGeometry x="260" y="645" width="120" height="80" as="geometry"/></mxCell><mxCell id="73" value="Приём" style="text;html=1;align=center;verticalAlign=middle;whiteSpace=wrap;rounded=0;fontStyle=1;shadow=0;sketch=0;container=0;fillColor=none;strokeColor=none;strokeWidth=0;" parent="1" vertex="1"><mxGeometry x="290" y="670" width="60" height="30" as="geometry"/></mxCell><mxCell id="75" value="" style="ellipse;whiteSpace=wrap;html=1;fontStyle=1;shadow=0;sketch=0;container=0;fillColor=#dae8fc;strokeColor=#6c8ebf;" parent="1" vertex="1"><mxGeometry x="260" y="945" width="120" height="80" as="geometry"/></mxCell><mxCell id="76" value="Процедуры" style="text;html=1;align=center;verticalAlign=middle;whiteSpace=wrap;rounded=0;fontStyle=1;shadow=0;sketch=0;container=0;fillColor=none;strokeColor=none;strokeWidth=0;" parent="1" vertex="1"><mxGeometry x="290" y="970" width="60" height="30" as="geometry"/></mxCell><mxCell id="78" value="" style="ellipse;whiteSpace=wrap;html=1;fontStyle=1;shadow=0;sketch=0;container=0;fillColor=#dae8fc;strokeColor=#6c8ebf;" parent="1" vertex="1"><mxGeometry x="420" y="645" width="120" height="80" as="geometry"/></mxCell><mxCell id="79" value="Терапевт" style="text;html=1;align=center;verticalAlign=middle;whiteSpace=wrap;rounded=0;fontStyle=1;shadow=0;sketch=0;container=0;fillColor=none;strokeColor=none;strokeWidth=0;" parent="1" vertex="1"><mxGeometry x="450" y="670" width="60" height="30" as="geometry"/></mxCell><mxCell id="81" value="" style="ellipse;whiteSpace=wrap;html=1;fontStyle=1;shadow=0;sketch=0;container=0;fillColor=#dae8fc;strokeColor=#6c8ebf;" parent="1" vertex="1"><mxGeometry x="530" y="745" width="120" height="80" as="geometry"/></mxCell><mxCell id="82" value="Специалист" style="text;html=1;align=center;verticalAlign=middle;whiteSpace=wrap;rounded=0;fontStyle=1;shadow=0;sketch=0;container=0;fillColor=none;strokeColor=none;strokeWidth=0;" parent="1" vertex="1"><mxGeometry x="560" y="770" width="60" height="30" as="geometry"/></mxCell><mxCell id="84" value="" style="ellipse;whiteSpace=wrap;html=1;fontStyle=1;shadow=0;sketch=0;container=0;fillColor=#dae8fc;strokeColor=#6c8ebf;" parent="1" vertex="1"><mxGeometry x="530" y="545" width="120" height="80" as="geometry"/></mxCell><mxCell id="85" value="Запись" style="text;html=1;align=center;verticalAlign=middle;whiteSpace=wrap;rounded=0;fontStyle=1;shadow=0;sketch=0;container=0;fillColor=none;strokeColor=none;strokeWidth=0;" parent="1" vertex="1"><mxGeometry x="560" y="570" width="60" height="30" as="geometry"/></mxCell><mxCell id="87" value="" style="ellipse;whiteSpace=wrap;html=1;fontStyle=1;shadow=0;sketch=0;container=0;fillColor=#dae8fc;strokeColor=#6c8ebf;" parent="1" vertex="1"><mxGeometry x="430" y="845" width="120" height="80" as="geometry"/></mxCell><mxCell id="88" value="Процедурный кабинет" style="text;html=1;align=center;verticalAlign=middle;whiteSpace=wrap;rounded=0;fontStyle=1;shadow=0;sketch=0;container=0;fillColor=none;strokeColor=none;strokeWidth=0;" parent="1" vertex="1"><mxGeometry x="460" y="870" width="60" height="30" as="geometry"/></mxCell><mxCell id="90" value="" style="ellipse;whiteSpace=wrap;html=1;fontStyle=1;shadow=0;sketch=0;container=0;fillColor=#dae8fc;strokeColor=#6c8ebf;" parent="1" vertex="1"><mxGeometry x="430" y="945" width="120" height="80" as="geometry"/></mxCell><mxCell id="91" value="Диагностика" style="text;html=1;align=center;verticalAlign=middle;whiteSpace=wrap;rounded=0;fontStyle=1;shadow=0;sketch=0;container=0;fillColor=none;strokeColor=none;strokeWidth=0;" parent="1" vertex="1"><mxGeometry x="460" y="970" width="60" height="30" as="geometry"/></mxCell><mxCell id="93" value="" style="ellipse;whiteSpace=wrap;html=1;fontStyle=1;shadow=0;sketch=0;container=0;fillColor=#dae8fc;strokeColor=#6c8ebf;" parent="1" vertex="1"><mxGeometry x="430" y="1050" width="120" height="80" as="geometry"/></mxCell><mxCell id="94" value="Лечебная гимнастика" style="text;html=1;align=center;verticalAlign=middle;whiteSpace=wrap;rounded=0;fontStyle=1;shadow=0;sketch=0;container=0;fillColor=none;strokeColor=none;strokeWidth=0;" parent="1" vertex="1"><mxGeometry x="460" y="1075" width="60" height="30" as="geometry"/></mxCell><mxCell id="96" value="" style="ellipse;whiteSpace=wrap;html=1;fontStyle=1;shadow=0;sketch=0;container=0;fillColor=#dae8fc;strokeColor=#6c8ebf;" parent="1" vertex="1"><mxGeometry x="260" y="1050" width="120" height="80" as="geometry"/></mxCell><mxCell id="97" value="Страховой стол" style="text;html=1;align=center;verticalAlign=middle;whiteSpace=wrap;rounded=0;fontStyle=1;shadow=0;sketch=0;container=0;fillColor=none;strokeColor=none;strokeWidth=0;" parent="1" vertex="1"><mxGeometry x="290" y="1075" width="60" height="30" as="geometry"/></mxCell></root></mxGraphModel></diagram></mxfile>